<svg id="Layer_1" data-name="Layer 1" xmlns="http://www.w3.org/2000/svg" xmlns:xlink="http://www.w3.org/1999/xlink" viewBox="0 0 299.94 42.39"><defs><style>.cls-1{fill:#333;}.cls-2{fill:#8c1833;}.cls-3{fill:url(#linear-gradient);}.cls-4{fill:#cecece;}</style><linearGradient id="linear-gradient" x1="27.04" y1="5.13" x2="27.04" y2="31.25" gradientUnits="userSpaceOnUse"><stop offset="0" stop-color="#650a29"/><stop offset="0.17" stop-color="#640a29" stop-opacity="0.94"/><stop offset="0.39" stop-color="#630a28" stop-opacity="0.78"/><stop offset="0.64" stop-color="#600927" stop-opacity="0.51"/><stop offset="0.92" stop-color="#5c0826" stop-opacity="0.13"/><stop offset="1" stop-color="#5b0825" stop-opacity="0"/></linearGradient></defs><title>logo-mobile</title><path class="cls-1" d="M99.09,33H76.26V0h5.27V28.66H99.09Z"/><path class="cls-1" d="M117.32,29.33,116,32.06a11,11,0,0,1-6.32,1.62c-4.5,0-8.18-2.58-8.18-7.32,0-5.64,4.5-8.7,14.11-8.7h1.63V17a25.74,25.74,0,0,0-.1-2.77c-.14-2.06-1.43-3.49-4.45-3.49s-4.64,1.72-4.92,4.88h-5.27c.34-5.55,4.5-8.71,10.29-8.71,6.55,0,9.14,2.77,9.57,7.08.1,1.05.14,2.39.14,3.59v8.94A44.34,44.34,0,0,0,123,33H117.8Zm0-5.84V21.15c-6.17-.48-10.19.91-10.19,4.78,0,2.68,1.77,3.93,4.54,3.93C114.92,29.86,117.27,27.61,117.27,23.49Z"/><path class="cls-1" d="M156.27,33h-6l-5-20.52L140.14,33h-6.08L126,7.61h5.93l5.22,20.72,4.92-20.67h6.42l5.07,20.71,5.21-20.76h5.6Z"/><path class="cls-1" d="M196.07,16.22c0,10.43-6.5,15.79-13,16.6a31.3,31.3,0,0,1-4.21.19h-9.67V0H179a35.41,35.41,0,0,1,4,.14C189.71.91,196.07,5.69,196.07,16.22Zm-3.25,0c0-8.47-4.64-12.82-10.09-13.59a29.39,29.39,0,0,0-3.83-.14h-6.7v28h6.55a26.85,26.85,0,0,0,4.07-.19C188.28,29.52,192.82,24.78,192.82,16.22Z"/><path class="cls-1" d="M221.72,21.24H202.54c.33,7.47,4.11,10.1,8.23,10.1a7.57,7.57,0,0,0,7.6-6.32h3.11c-1.19,5.89-5.83,8.66-10.91,8.66-6.31,0-11.24-4.4-11.24-13.3C199.33,12.25,204.4,7,211.05,7c7.08,0,10.77,5.65,10.77,12.64A10.91,10.91,0,0,1,221.72,21.24ZM202.54,18.9H218.8c-.33-6.51-3.58-9.47-7.84-9.47S203,12.58,202.54,18.9Z"/><path class="cls-1" d="M248.87,20.05c0,9.18-5.64,13.63-12.05,13.63a9.62,9.62,0,0,1-6.51-2.24l-1.58-2.73V42.39h-3V7.56h3v4.83l1.68-2.77A10,10,0,0,1,237.58,7C244.66,7,248.87,12.54,248.87,20.05Zm-3.25.38c0-6.08-2.92-11-8.47-11-4.5,0-8.42,2.68-8.42,10.33v1.91c0,7.23,4.35,9.67,8.09,9.67C241.89,31.34,245.62,27.27,245.62,20.43Z"/><path class="cls-1" d="M276.34,20.38c0,7.42-4.26,13.3-12.3,13.3s-12.29-5.88-12.29-13.3S256,7,264,7,276.34,12.92,276.34,20.38Zm-3.25,0c0-6.89-3.78-10.95-9-10.95s-9,4.06-9,11,3.78,11,9,11S273.09,27.27,273.09,20.38Z"/><path class="cls-1" d="M285.1,26.08c0,1.05,0,1.58,0,2.25.2,2.44,1.25,3.06,4.64,2.63v2.2a16.55,16.55,0,0,1-3.06.24c-2.82,0-4.3-1.25-4.54-4-.05-.86-.05-1.82-.05-3.26V10.19h-3.25V7.89h3.25V2.3h3V7.89h4.83v2.3H285.1Z"/><path class="cls-1" d="M291.48,28.8a4.14,4.14,0,0,1,.57-2.1,4.07,4.07,0,0,1,1.54-1.54,4.24,4.24,0,0,1,4.23,0,4,4,0,0,1,1.55,1.54,4.15,4.15,0,0,1,.57,2.11,4.17,4.17,0,0,1-2.07,3.63,4.23,4.23,0,0,1-6.39-3.63Zm.59,0a3.64,3.64,0,0,0,3.64,3.63,3.5,3.5,0,0,0,1.82-.49,3.58,3.58,0,0,0,1.33-1.32,3.61,3.61,0,0,0,0-3.63,3.71,3.71,0,0,0-1.32-1.32,3.54,3.54,0,0,0-1.83-.49,3.66,3.66,0,0,0-3.64,3.62Zm5.36-1a1.37,1.37,0,0,1-.24.8,1.39,1.39,0,0,1-.67.51l1.34,2.21h-.95l-1.16-2H295v2h-.83v-5h1.46a2.06,2.06,0,0,1,1.37.37A1.35,1.35,0,0,1,297.43,27.78Zm-2.44.85h.61a1.11,1.11,0,0,0,.72-.23.75.75,0,0,0,.27-.59.74.74,0,0,0-.24-.61,1.3,1.3,0,0,0-.77-.18H295Z"/><path class="cls-2" d="M45.3,28.4l0-.06L57.84,3.2H28.4l-.2,0a1.86,1.86,0,0,0-.34.07h0l-.14,0a2.5,2.5,0,0,0-.25.09h0a4.47,4.47,0,0,0-1.13.68h0L26,4.4l0,0-.19.2-.1.11,0,0-.25.33s0,0,0,0-.15.24-.22.36h0l-.09.16-.53,1.07L12.35,31.25h29a4.57,4.57,0,0,0,3-1.47A5.38,5.38,0,0,0,45.3,28.4ZM13.38,31.16h0l0,0Zm26.95,0h0l0,0Zm1.54,0h0l0,0Z"/><path class="cls-3" d="M25.32,6.94c0-.61,0-1.21.07-1.81h0s0,0,0,0-.15.24-.22.36h0l-.09.16-.53,1.07L12.35,31.25h29a2.69,2.69,0,0,0,.4,0A26.18,26.18,0,0,1,25.32,6.94ZM13.38,31.16h0l0,0Zm26.95,0h0l0,0Z"/><path class="cls-4" d="M13.24,8.1a4.57,4.57,0,0,0-3,1.47,5.38,5.38,0,0,0-1,1.38l0,.06-.2.38c.28-.07,32.56-.1,32.56-.1a4.53,4.53,0,0,0,3-1.47,5.26,5.26,0,0,0,1-1.39l0,0L45.8,8C45.52,8.07,13.24,8.1,13.24,8.1Zm28.91,3.09h0Z"/><path class="cls-4" d="M4.2,15a4.6,4.6,0,0,0-3,1.47,5.43,5.43,0,0,0-1,1.39l0,.05L0,18.31c.28-.08,32.56-.1,32.56-.1a4.6,4.6,0,0,0,3-1.47,5.43,5.43,0,0,0,1-1.39l0,0,.19-.39C36.48,15,4.2,15,4.2,15Zm28.91,3.1h0Z"/></svg>